<svg width="504" height="33" viewBox="0 0 504 33" fill="none"
     xmlns="http://www.w3.org/2000/svg">
    <path d="M22.0167 29.3036C12.6948 30.6765 10.8969 32.1867 0 30.9838V33L503.881 33C506.883 33 452.009 32.3279 448.339 32.3279L438.832 30.9838H422.319C419.317 30.9838 411.812 30.9838 392.797 29.3036C384.791 27.6235 384.291 29.3036 375.284 29.3036C366.277 29.3036 369.78 29.3036 363.775 27.2874C357.771 25.2713 359.269 27.147 352.267 27.2874C345.529 27.4226 331.251 27.9595 318.241 27.2874C305.231 26.6154 301.728 28.9676 299.226 29.3036C296.724 29.6397 292.101 27.8992 288.718 27.2874C285.213 26.6534 273.209 25.9718 268.203 27.2874C263.543 28.5121 255.693 28.9676 245.686 27.2874C237.68 25.9433 233.677 24.9352 230.675 25.2713C227.672 25.6073 222.544 28.1813 217.164 27.2874C212.494 26.0553 201.653 23.9271 195.648 25.2713C190.144 28.2955 182.638 24.5992 176.133 16.5344C172.931 13.5773 169.001 15.1397 167.5 18.5C165.115 23.8384 155.228 15.5398 153.116 11.83C151.24 8.18997 150.276 5.91308 144.609 8.46963C140.204 10.431 137.407 12.0132 135.603 10.1498C132.1 5.44534 126.756 2.29001 124.594 5.10931C123.572 6.54471 123.681 6.90335 120.091 6.78947C117.538 5.85898 116.162 5.29253 114.587 3.42915C111.735 0.519274 110.535 1.85959 105.079 0.0688172C103.028 -0.826667 98.4167 7.29189 97.5738 8.46963C96.731 9.64737 94.5278 8.46065 89.0674 8.46963C86.2832 8.52197 85.4509 9.99178 83.5632 11.83C81.616 12.9304 80.5286 13.7859 78.5594 12.8381C76.2849 10.3991 72.8744 11.5329 69.0522 14.1822C64.9393 16.9088 62.4178 17.1063 60.0454 16.5344C55.9162 15.5893 54.2452 15.4861 53.0401 16.5344C49.0477 19.8182 46.7656 21.4962 42.0318 22.247C38.4151 23.0706 36.6231 24.1862 34.0257 27.2874C32.0035 29.0309 26.5411 28.2413 22.0167 29.3036Z"
          fill="#B4966E"/>
</svg>
