<svg width="349" height="33" viewBox="0 0 349 33" fill="none"
     xmlns="http://www.w3.org/2000/svg">
    <path d="M15.2357 29.3036C8.78491 30.6765 7.54073 32.1867 0 30.9838V33L348.69 33C350.767 33 312.793 32.3279 310.254 32.3279L303.675 30.9838H292.248C290.171 30.9838 284.977 30.9838 271.819 29.3036C266.278 27.6235 265.932 29.3036 259.699 29.3036C253.467 29.3036 255.89 29.3036 251.735 27.2874C247.58 25.2713 248.617 27.147 243.771 27.2874C239.109 27.4226 229.228 27.9595 220.225 27.2874C211.222 26.6154 208.798 28.9676 207.067 29.3036C205.336 29.6397 202.136 27.8992 199.795 27.2874C197.37 26.6534 189.063 25.9718 185.598 27.2874C182.374 28.5121 176.942 28.9676 170.017 27.2874C164.476 25.9433 161.706 24.9352 159.629 25.2713C157.551 25.6073 154.002 28.1813 150.279 27.2874C147.048 26.0553 139.545 23.9271 135.39 25.2713C131.581 28.2955 126.387 24.5992 121.886 16.5344C119.669 13.5773 116.95 15.1397 115.911 18.5C114.261 23.8384 107.419 15.5398 105.957 11.83C104.66 8.18997 103.992 5.91308 100.071 8.46963C97.0219 10.431 95.087 12.0132 93.838 10.1498C91.4142 5.44534 87.7162 2.29001 86.2202 5.10931C85.5127 6.54471 85.5881 6.90335 83.1038 6.78947C81.3369 5.85898 80.3848 5.29253 79.2949 3.42915C77.3212 0.519274 76.4908 1.85959 72.7158 0.0688172C71.2964 -0.826667 68.1051 7.29189 67.5218 8.46963C66.9386 9.64737 65.414 8.46065 61.6353 8.46963C59.7086 8.52197 59.1327 9.99178 57.8264 11.83C56.4789 12.9304 55.7264 13.7859 54.3637 12.8381C52.7897 10.3991 50.4297 11.5329 47.7847 14.1822C44.9385 16.9088 43.1936 17.1063 41.5519 16.5344C38.6944 15.5893 37.5381 15.4861 36.7042 16.5344C33.9414 19.8182 32.3621 21.4962 29.0863 22.247C26.5836 23.0706 25.3435 24.1862 23.5461 27.2874C22.1467 29.0309 18.3667 28.2413 15.2357 29.3036Z"
          fill="#B4966E"/>
</svg>
